Coordinates
version=1
nRows=5
nColumns=63
inDegrees=yes

Units are S.I. units (second, meters, Newtons, ...)
If the header above contains a line with 'inDegrees', this indicates whether rotational values are in degrees (yes) or radians (no).

endheader
time	pelvis_tilt	pelvis_list	pelvis_rotation	pelvis_tx	pelvis_ty	pelvis_tz	hip_flexion_r	hip_adduction_r	hip_rotation_r	knee_angle_r	knee_angle_r_beta	ankle_angle_r	subtalar_angle_r	mtp_angle_r	hip_flexion_l	hip_adduction_l	hip_rotation_l	knee_angle_l	knee_angle_l_beta	ankle_angle_l	subtalar_angle_l	mtp_angle_l	L5_S1_Flex_Ext	L5_S1_Lat_Bending	L5_S1_axial_rotation	L4_L5_Flex_Ext	L4_L5_Lat_Bending	L4_L5_axial_rotation	L3_L4_Flex_Ext	L3_L4_Lat_Bending	L3_L4_axial_rotation	L2_L3_Flex_Ext	L2_L3_Lat_Bending	L2_L3_axial_rotation	L1_L2_Flex_Ext	L1_L2_Lat_Bending	L1_L2_axial_rotation	L1_T12_Flex_Ext	L1_T12_Lat_Bending	L1_T12_axial_rotation	Abs_r3	Abs_r2	Abs_r1	Abs_t1	Abs_t2	neck_flexion	neck_bending	neck_rotation	arm_flex_r	arm_add_r	arm_rot_r	elbow_flex_r	pro_sup_r	wrist_flex_r	wrist_dev_r	arm_flex_l	arm_add_l	arm_rot_l	elbow_flex_l	pro_sup_l	wrist_flex_l	wrist_dev_l
      2.31372549	      8.55198375	     -0.38669361	     93.46398778	      0.47405417	      0.61555176	      0.64249019	      0.98314473	      7.96304706	     -2.08022362	     12.58111985	      0.21958196	     23.17346218	    -11.50819450	      0.00000000	      0.38456855	     -6.59677742	     -3.38218209	     12.50997740	      0.21834029	     32.39255976	      5.32362234	      0.00000000	      0.05462466	      0.46352557	      0.93300017	      0.10144346	      0.61648900	      0.99131268	      0.08974286	      1.12701606	      0.99131268	      0.06243053	      1.12701606	      0.81637515	      0.05072446	      0.94522133	      0.75806264	      0.03121253	      0.71800110	      0.69975013	      0.39017851	      5.24349391	      5.18906704	      0.00000000	      0.00000000	     12.90588258	      5.20196457	    -19.47320157	     35.17093196	    -24.20898636	     13.42702405	    119.83458531	     87.39627545	     -6.01019034	     22.87967600	     12.28614747	    -10.34001800	    120.40027924	     16.01927059	     16.42636698	     -4.18643624	     -6.92797168
      2.33333333	      8.25169730	     -0.47467114	     93.64433644	      0.47408869	      0.61498543	      0.64232764	      0.94688221	      7.68139409	     -2.05720418	     12.32925341	      0.21518607	     23.28527825	    -11.63480641	      0.00000000	      0.29453025	     -6.31834168	     -3.59355487	     12.14689000	      0.21200322	     32.14580938	      5.37756691	      0.00000000	      0.07770847	      0.47414230	      1.03766629	      0.14431240	      0.63060926	      1.10252044	      0.12766725	      1.15282959	      1.10252044	      0.08881301	      1.15282959	      0.90795801	      0.07216009	      0.96687098	      0.84310386	      0.04440262	      0.73444642	      0.77824972	      0.55506383	      5.36359254	      5.77118862	      0.00000000	      0.00000000	     12.59899117	      4.83602346	    -19.75409674	     34.39579162	    -23.70579769	     15.69179919	    118.18209821	     87.24371667	     -6.79423781	     23.49586535	     12.16051736	    -10.19574435	    120.19232886	     16.06028676	     16.04759081	     -4.18378256	     -6.94101639
      2.35294118	      8.13052165	     -0.46708589	     93.49345293	      0.47392248	      0.61429635	      0.64225274	      0.83128264	      7.59047528	     -1.39766779	     12.14872538	      0.21203526	     23.32699065	    -12.12703657	      0.00000000	     -0.04543841	     -6.23593160	     -4.69628407	     11.66316225	      0.20356058	     31.89575489	      5.94330498	      0.00000000	      0.08634197	      0.52575181	      1.06080963	      0.16034567	      0.69924990	      1.12711024	      0.14185122	      1.27831294	      1.12711024	      0.09868023	      1.27831294	      0.92820843	      0.08017715	      1.07211308	      0.86190783	      0.04933580	      0.81438955	      0.79560722	      0.61673204	      5.94740958	      5.89990494	      0.00000000	      0.00000000	     12.48106681	      3.95096208	    -18.70634702	     34.59817491	    -23.65997914	     19.03102634	    116.66840541	     86.72306017	    -12.06735855	     23.94763549	     11.68001734	    -10.05935511	    119.31172821	     16.21034425	     14.32468636	     -4.16735315	     -7.11120441
      2.37254902	      7.98611071	     -0.57269186	     93.54766348	      0.47361119	      0.61361277	      0.64270415	      0.86399688	      7.44566613	     -1.39436661	     11.98826778	      0.20923474	     23.41334374	    -12.22909839	      0.00000000	     -0.10918005	     -6.10006773	     -5.30306515	     11.39452591	      0.19887199	     31.24064430	      5.79892290	      0.00000000	      0.10210906	      0.55236472	      1.01168948	      0.18962674	      0.73464508	      1.07492008	      0.16775498	      1.34301958	      1.07492008	      0.11670045	      1.34301958	      0.88522830	      0.09481848	      1.12638214	      0.82199771	      0.05834512	      0.85561295	      0.75876711	      0.72935483	      6.24846018	      5.62671340	      0.00000000	      0.00000000	     12.59234763	      3.28343852	    -18.71081306	     34.16988909	    -23.31667503	     20.03991366	    115.71982586	     86.63635033	    -12.23103160	     24.13127892	     11.53194839	    -10.11656195	    119.47900773	     16.43697860	     14.36478922	     -4.12756065	     -6.98519263
      2.39215686	      7.86693657	     -0.49916372	     93.16743913	      0.47311699	      0.61305229	      0.64347893	      0.69049226	      7.30901018	     -0.59725953	     11.82716111	      0.20642290	     23.22784386	    -12.59908102	      0.00000000	     -0.62267753	     -5.98940070	     -6.91332094	     10.78062535	      0.18815741	     30.82462035	      6.86521964	      0.00000000	      0.08931800	      0.60570884	      0.86041312	      0.16587246	      0.80559276	      0.91418894	      0.14674054	      1.47272047	      0.91418894	      0.10208154	      1.47272047	      0.75286148	      0.08294069	      1.23516147	      0.69908566	      0.05103630	      0.93824299	      0.64530984	      0.63798954	      6.85189954	      4.78535965	      0.00000000	      0.00000000	     12.13882334	      1.90404169	    -16.96231323	     35.24030542	    -23.22524409	     22.80188794	    114.46174594	     86.37835731	    -14.79761106	     23.87666151	     10.94647654	    -10.01226432	    119.52343393	     16.34319834	     13.71325599	     -4.20290732	     -7.22178581
